<svg width="67" height="22" viewBox="0 0 67 22" fill="none" xmlns="http://www.w3.org/2000/svg">
<path d="M9.90003 6.42002C9.64669 5.95335 9.28003 5.60002 8.80003 5.36002C8.33336 5.10669 7.78003 4.98002 7.14003 4.98002C6.03336 4.98002 5.14669 5.34669 4.48003 6.08002C3.81336 6.80002 3.48003 7.76669 3.48003 8.98002C3.48003 10.2734 3.82669 11.2867 4.52003 12.02C5.22669 12.74 6.19336 13.1 7.42003 13.1C8.26003 13.1 8.96669 12.8867 9.54003 12.46C10.1267 12.0334 10.5534 11.42 10.82 10.62H6.48003V8.10002H13.92V11.28C13.6667 12.1334 13.2334 12.9267 12.62 13.66C12.02 14.3934 11.2534 14.9867 10.32 15.44C9.38669 15.8934 8.33336 16.12 7.16003 16.12C5.77336 16.12 4.53336 15.82 3.44003 15.22C2.36003 14.6067 1.51336 13.76 0.900027 12.68C0.300027 11.6 2.68519e-05 10.3667 2.68519e-05 8.98002C2.68519e-05 7.59335 0.300027 6.36002 0.900027 5.28002C1.51336 4.18669 2.36003 3.34002 3.44003 2.74002C4.52003 2.12669 5.75336 1.82002 7.14003 1.82002C8.82003 1.82002 10.2334 2.22669 11.38 3.04002C12.54 3.85335 13.3067 4.98002 13.68 6.42002H9.90003ZM20.8944 16.18C19.8011 16.18 18.8144 15.9467 17.9344 15.48C17.0677 15.0134 16.3811 14.3467 15.8744 13.48C15.3811 12.6134 15.1344 11.6 15.1344 10.44C15.1344 9.29335 15.3877 8.28669 15.8944 7.42002C16.4011 6.54002 17.0944 5.86669 17.9744 5.40002C18.8544 4.93335 19.8411 4.70002 20.9344 4.70002C22.0277 4.70002 23.0144 4.93335 23.8944 5.40002C24.7744 5.86669 25.4677 6.54002 25.9744 7.42002C26.4811 8.28669 26.7344 9.29335 26.7344 10.44C26.7344 11.5867 26.4744 12.6 25.9544 13.48C25.4477 14.3467 24.7477 15.0134 23.8544 15.48C22.9744 15.9467 21.9877 16.18 20.8944 16.18ZM20.8944 13.22C21.5477 13.22 22.1011 12.98 22.5544 12.5C23.0211 12.02 23.2544 11.3334 23.2544 10.44C23.2544 9.54669 23.0277 8.86002 22.5744 8.38002C22.1344 7.90002 21.5877 7.66002 20.9344 7.66002C20.2677 7.66002 19.7144 7.90002 19.2744 8.38002C18.8344 8.84669 18.6144 9.53335 18.6144 10.44C18.6144 11.3334 18.8277 12.02 19.2544 12.5C19.6944 12.98 20.2411 13.22 20.8944 13.22ZM38.6488 1.98002V4.72002H34.9288V16.02H31.5088V4.72002H27.7888V1.98002H38.6488ZM43.7852 6.72002C44.1852 6.10669 44.6852 5.62669 45.2852 5.28002C45.8852 4.92002 46.5519 4.74002 47.2852 4.74002V8.36002H46.3452C45.4919 8.36002 44.8519 8.54669 44.4252 8.92002C43.9985 9.28002 43.7852 9.92002 43.7852 10.84V16.02H40.3652V4.86002H43.7852V6.72002ZM50.6399 3.70002C50.0399 3.70002 49.5465 3.52669 49.1599 3.18002C48.7865 2.82002 48.5999 2.38002 48.5999 1.86002C48.5999 1.32669 48.7865 0.886686 49.1599 0.540019C49.5465 0.180018 50.0399 1.83582e-05 50.6399 1.83582e-05C51.2265 1.83582e-05 51.7065 0.180018 52.0799 0.540019C52.4665 0.886686 52.6599 1.32669 52.6599 1.86002C52.6599 2.38002 52.4665 2.82002 52.0799 3.18002C51.7065 3.52669 51.2265 3.70002 50.6399 3.70002ZM52.3399 4.86002V16.02H48.9199V4.86002H52.3399ZM58.2383 6.44002C58.5716 5.92002 59.0316 5.50002 59.6183 5.18002C60.205 4.86002 60.8916 4.70002 61.6783 4.70002C62.5983 4.70002 63.4316 4.93335 64.1783 5.40002C64.925 5.86669 65.5116 6.53335 65.9383 7.40002C66.3783 8.26669 66.5983 9.27335 66.5983 10.42C66.5983 11.5667 66.3783 12.58 65.9383 13.46C65.5116 14.3267 64.925 15 64.1783 15.48C63.4316 15.9467 62.5983 16.18 61.6783 16.18C60.905 16.18 60.2183 16.02 59.6183 15.7C59.0316 15.38 58.5716 14.9667 58.2383 14.46V21.34H54.8183V4.86002H58.2383V6.44002ZM63.1183 10.42C63.1183 9.56669 62.8783 8.90002 62.3983 8.42002C61.9316 7.92669 61.3516 7.68002 60.6583 7.68002C59.9783 7.68002 59.3983 7.92669 58.9183 8.42002C58.4516 8.91335 58.2183 9.58669 58.2183 10.44C58.2183 11.2934 58.4516 11.9667 58.9183 12.46C59.3983 12.9534 59.9783 13.2 60.6583 13.2C61.3383 13.2 61.9183 12.9534 62.3983 12.46C62.8783 11.9534 63.1183 11.2734 63.1183 10.42Z" fill="white"/>
</svg>
